<?xml version='1.0' encoding='utf-8'?>
<svg xmlns="http://www.w3.org/2000/svg" width="91.44mm" height="91.44mm" version="1.1" style="shape-rendering:geometricPrecision; text-rendering:geometricPrecision; image-rendering:optimizeQuality; fill-rule:evenodd; clip-rule:evenodd" viewBox="0 0 9144 9144"> <defs> <style type="text/css">  .fil0 {fill:#F0F0F0} .fil1 {fill:#011627;fill-rule:nonzero}  </style> </defs> <g id="Layer_x0020_1"> <metadata id="CorelCorpID_0Corel-Layer"/> <g id="_2744503365792"> <polygon class="fil0" points="0,0 9144,0 9144,9144 0,9144 "/> <path class="fil1" d="M6366 3719c-49,0 -88,-39 -88,-88 0,-48 39,-88 88,-88 49,0 88,40 88,88 0,49 -39,88 -88,88z"/> <path class="fil1" d="M2277 6437l4590 0 0 -3301 -1270 0c-39,0 -72,-26 -84,-61l-145 -368 -1592 0 -147 373c-14,34 -47,56 -82,56l-1270 0 0 3301zm2295 -2737c300,0 572,121 769,318 196,197 318,468 318,769 0,300 -122,571 -318,768 -197,197 -469,319 -769,319 -300,0 -572,-122 -769,-319 -196,-197 -318,-468 -318,-768 0,-301 122,-572 318,-769 197,-197 469,-318 769,-318zm644 443c-165,-165 -393,-267 -644,-267 -251,0 -479,102 -644,267 -165,164 -267,392 -267,644 0,251 102,479 267,643 165,165 393,267 644,267 251,0 479,-102 644,-267 165,-164 267,-392 267,-643 0,-252 -102,-480 -267,-644zm1739 2471l-4766 0c-49,0 -89,-40 -89,-89l0 -3477c0,-49 40,-89 89,-89l1298 0 145 -368c12,-35 45,-61 84,-61l1712 0c35,1 68,22 82,57l147 372 1298 0c49,0 89,40 89,89l0 3477c0,49 -40,89 -89,89z"/> </g> </g> </svg>