<?xml version="1.0" encoding="UTF-8"?>
<svg viewBox="0 0 400 259" xmlns="http://www.w3.org/2000/svg" xmlns:xlink="http://www.w3.org/1999/xlink">
 <defs>
  <filter id="o">
   <feGaussianBlur stdDeviation=".5235"/>
  </filter>
  <linearGradient id="b">
   <stop stop-color="#fff" offset="0"/>
   <stop stop-color="#fff" stop-opacity="0" offset="1"/>
  </linearGradient>
  <linearGradient id="a">
   <stop stop-color="#782121" offset="0"/>
   <stop stop-color="#501616" offset="1"/>
  </linearGradient>
  <linearGradient id="n" x1="785.2" x2="233.44" y1="523.46" y2="425.86" gradientUnits="userSpaceOnUse">
   <stop stop-color="#fbddad" offset="0"/>
   <stop stop-color="#c77c41" offset="1"/>
  </linearGradient>
  <linearGradient id="m" x1="407.76" x2="458.36" y1="230.17" y2="287.59" gradientUnits="userSpaceOnUse">
   <stop stop-color="#905520" offset="0"/>
   <stop stop-color="#905520" stop-opacity="0" offset="1"/>
  </linearGradient>
  <linearGradient id="l" x1="590.06" x2="661.87" y1="518.71" y2="187.67" gradientUnits="userSpaceOnUse">
   <stop stop-color="#ffdc75" offset="0"/>
   <stop stop-color="#e4ae4f" offset=".1443"/>
   <stop stop-color="#fddc74" offset=".3904"/>
   <stop stop-color="#feefa6" offset="1"/>
  </linearGradient>
  <linearGradient id="k" x1="373.5" x2="437.75" y1="207.38" y2="258.68" gradientUnits="userSpaceOnUse">
   <stop stop-color="#520" offset="0"/>
   <stop stop-color="#520" stop-opacity="0" offset="1"/>
  </linearGradient>
  <linearGradient id="j" x1="475.19" x2="473.29" y1="423.48" y2="445.36" gradientUnits="userSpaceOnUse">
   <stop stop-color="#501616" offset="0"/>
   <stop stop-color="#2b0000" offset="1"/>
  </linearGradient>
  <linearGradient id="i" x1="591.67" x2="581.31" y1="456.82" y2="510.38" gradientUnits="userSpaceOnUse">
   <stop stop-color="#e7b353" offset="0"/>
   <stop stop-color="#fff" offset="1"/>
  </linearGradient>
  <radialGradient id="c" cx="820.03" cy="426.25" r="83.675" gradientTransform="matrix(1 0 0 .5438 0 219.05)" gradientUnits="userSpaceOnUse">
   <stop stop-color="#fff" stop-opacity=".2" offset="0"/>
   <stop stop-color="#fff" stop-opacity="0" offset="1"/>
  </radialGradient>
  <radialGradient id="h" cx="455.51" cy="455.61" r="61.566" gradientTransform="matrix(2.7781 .66529 -.38559 1.6101 -607.84 -613.77)" gradientUnits="userSpaceOnUse" xlink:href="#a"/>
  <radialGradient id="g" cx="438.99" cy="379.21" r="78.254" gradientTransform="matrix(.64881 -.01363 .01172 .55789 173.47 165.66)" gradientUnits="userSpaceOnUse" xlink:href="#b"/>
  <radialGradient id="f" cx="690.15" cy="253.78" r="79.491" gradientTransform="matrix(-.86939 .81987 -.86221 -.91429 1508.7 -38.897)" gradientUnits="userSpaceOnUse" xlink:href="#a"/>
  <radialGradient id="e" cx="938.14" cy="574.45" r="84.175" gradientTransform="matrix(.42895 -.90333 1.6398 .77869 -417.51 924.27)" gradientUnits="userSpaceOnUse" xlink:href="#a"/>
  <radialGradient id="d" cx="625.6" cy="320.06" r="86.84" gradientTransform="matrix(.51046 .01399 -.01246 .4548 310.24 163.32)" gradientUnits="userSpaceOnUse" xlink:href="#b"/>
 </defs>
 <g transform="matrix(.57492 0 0 .57492 -165.01 -86.926)">
  <path d="m330.92 460.27c6.4185 5.1748 15.294 6.2444 23.209 8.5508 11.449 3.336 23.048 7.0996 34.716 9.5886 16.463 3.512 33.062 5.4777 49.57 8.7344 16.228 3.2016 32.396 7.0816 48.862 8.6646 22.7 2.1825 45.727-1.2885 68.406 1.1077 56.721 5.993 137.2 25.174 209.9 40.385 93.927 19.651 174.88 35.35 174.88 35.35l21.988-8.5508-320.04-368.9s-17.53-27.464-31.76-32.982c-23.586-9.1461-51.102-0.8715-75.735 4.8862-30.926 7.2285-59.918 21.718-87.951 36.646-24.122 12.846-48.843 26.113-68.406 45.197-11.724 11.437-18.498 27.039-28.095 40.311-9.544 13.198-21.465 24.82-29.317 39.089-6.0882 11.065-9.4128 23.454-13.437 35.425-2.2991 6.8391-6.9787 13.604-6.1077 20.766 0.6828 5.6154 7.1885 9.1682 8.5507 14.658 2.3555 9.4929-4.0703 19.96-1.2215 29.317 2.2061 7.2456 9.162 12.071 13.437 18.323 2.9966 4.3825 4.4178 10.105 8.5508 13.437z" fill="url(#n)"/>
  <path d="m557.53 161.81c-3.8954 0.83024-7.7609 1.7696-11.594 2.6875-9.3283 4.9408-12.453 18.687-21.906 23.781-20.996 11.316-46.361 9.4495-70.469 12-2.1991 1.156-4.4068 2.3041-6.5938 3.4688-23.809 12.679-48.185 25.781-67.625 44.469-1.167 9.0583-1.6861 18.479-6.7812 25.594-6.4002 8.9369-15.719 14.868-25.688 20.188-8.8061 11.308-18.823 21.812-25.719 34.344-6.0882 11.065-9.4134 23.467-13.438 35.438-2.2991 6.8391-6.996 13.588-6.125 20.75 0.6828 5.6154 7.2003 9.166 8.5625 14.656 0.94286 3.7998 0.46309 7.7716-0.25 11.75 4.4336-0.20138 8.7596-0.36131 12.594-0.3125 19.084 0.24293 41.527 1.2196 56.188-11 18.819-15.685 9.9157-50.727 26.875-68.406 36.977-38.547 98.109-42.268 146.56-64.75 34.176-15.858 91.051-17.096 120-37.031l-29.719-34.25s-16.245-25.469-30.156-32.281c-7.8218 0.85894-15.721 2.2021-23.469 2.1875-10.273-0.0194-21.112-3.5938-31.25-3.2812z" fill="url(#m)"/>
  <path d="m343.25 444.82c6.1077 2.4431 22.218 4.9268 32.982 8.5508 14.011 4.7172 26.392 14.374 40.922 17.102 16.213 3.0438 33.022-2.4457 49.472-1.2215 16.489 1.2271 32.593 5.5962 48.862 8.5508 34.651 6.293 69.09 13.763 103.83 19.545 30.844 5.1327 61.991 8.3152 92.837 13.437 45.772 7.6002 91.483 15.746 136.81 25.652 22.962 5.0182 46.189 24.771 68.406 17.102 8.7769-3.0297 17.102-21.988 17.102-21.988l-45.197-48.862s-243.77-286.43-253.14-286.1c-13.558 0.48813-221.98 126.45-288.35 229.92-3.3951 5.2925-4.5399 18.309-4.5399 18.309z" fill="#782121"/>
  <path d="m350.58 435.04s-13.75-14.977-14.658-24.431c1.061-9.6258 5.5648-21.205 12.772-28.874 5.1018-5.4283 14.936-4.6809 19.839-10.289 7.1521-8.1816 7.8726-21.777 11.007-30.687 2.2094-6.2809 8.025-7.4469 11.724-13.083 2.392-3.6447 1.2761-8.2872 4.5137-11.125 11.378-9.9746 30.051-8.4666 41.532-18.323 9.2664-7.9554 10.704-22.91 19.693-30.896 5.1753-4.5981 14.394-3.2509 20.993-5.5583 9.257-3.2369 13.693-10.349 22.835-13.629 13.696-4.9132 28.462-7.042 41.532-13.437 11.057-5.4102 19.187-16.003 30.538-20.766 21.06-8.8366 67.185-13.437 67.185-13.437l-284.62 235.76-4.8862-1.2215" fill="#782121"/>
  <path d="m634.9 199.79c-11.443-2.2369-23.232 3.3826-34.203 7.3292-10.796 3.8836-20.035 11.263-30.538 15.88-13.089 5.7535-27.257 8.8246-40.311 14.658-11.808 5.2774-22.84 12.145-34.203 18.323-11.848 6.4418-23.695 12.889-35.425 19.545-9.8397 5.5833-20.502 10.009-29.317 17.102-10.777 8.6712-18.171 20.904-28.095 30.538-5.7992 5.6296-13.668 9.273-18.323 15.88-4.5295 6.4285-4.5984 15.189-8.5508 21.988-8.4379 14.514-27.424 22.87-31.76 39.089-3.3018 12.352-3.6264 29.578 6.1077 37.868 7.4399 6.3361 23.838-8.0921 29.317 0 1.2293 1.8157-3.5436 4.2112-2.443 6.1077 8.8733 15.29 37.052-1.2201 52.526 7.3292 8.8528 4.8913 9.7039 20.874 19.545 23.209 12.069 2.8641 22.82-19.586 34.203-14.658 8.7473 3.7869 1.9652 21.405 9.7724 26.874 3.0016 2.1024 7.8354 1.8584 10.994 0 7.2262-4.2519 4.3291-19.141 12.215-21.988 7.3968-2.6699 16.565 2.8552 21.988 8.5508 4.4392 4.6629 1.0458 14.345 6.1077 18.323 3.855 3.0297 10.804-1.8082 14.658 1.2215 7.0866 5.5695-0.4626 25.652 8.5507 25.652 11.588 2e-5 1.1529-26.862 10.994-32.982 17.8-11.069 42.435 1.8577 62.298 8.5508 17.278 5.8218 29.828 22.98 47.64 26.874 4.7899 1.0472 11.479 2.5113 14.658-1.2215 3.4422-4.0418-5.3504-12.543-1.2215-15.88 8.9176-7.2078 23.186 3.813 32.982 9.7723 6.2737 3.8165 8.0053 14.803 15.269 15.88 5.7703 0.85593 9.5167-9.5195 15.269-8.5508 4.835 0.81421 4.9257 10.252 9.7723 10.994 4.6938 0.71837 7.5676-8.302 12.215-7.3292 9.2892 1.9441 1.5035 21.351 16.491 23.209 7.9621 0.98715 6.0735-18.66 14.048-19.545 9.7464-1.0812 12.197 20.09 21.988 19.545 5.4696-0.3048 6.0664-14.609 10.994-12.215 17.312 8.4096 27.333 0.13278 39.089 6.1077 7.7002 3.9134 10.219 15.334 18.323 18.323 7.2812 2.6852 16.081-8.5663 23.209-1.8323 6.088 5.7511 3.574 34.896 17.102 37.868 3.947 0.86713 7.3088-4.3486 9.1615-7.94 4.8761-9.4518 5.3269-21.37 3.0538-31.76-4.3285-19.785-16.541-37.889-30.538-52.526-4.6836-4.8978-12.365-6.1476-17.102-10.994-6.0041-6.1425-9.7112-14.248-13.437-21.988-2.0673-4.2942-1.7152-9.879-4.8862-13.437-5.4521-6.1173-16.193-5.1996-21.988-10.994-7.0819-7.0819-5.2935-21.044-13.437-26.874-7.3511-5.2629-18.981 0.74361-26.874-3.6646-12.882-7.194-17.915-23.524-28.095-34.203-7.9567-8.3462-18.494-14.169-25.652-23.209-8.3722-10.573-11.207-24.825-19.545-35.425-4.098-5.2098-10.316-8.4295-14.658-13.437-6.1418-7.0816-9.1824-16.651-15.88-23.209-9.0374-8.8498-23.541-11.151-31.76-20.766-5.8026-6.788-4.7331-18.063-10.994-24.431-5.3634-5.4553-16.667-3.313-20.766-9.7723-1.9636-3.0942 1.7143-7.755 0-10.994-5.7587-10.88-18.457-18.405-30.538-20.766z" fill="url(#l)"/>
  <path d="m474.81 199.31c-4.4229 0.30626-10.203 8.3596-15.5 9.75-8.1938 2.1508-16.889 1.1792-25.375 1.6875-13.477 7.3498-26.826 15.128-39.031 24.281-0.49338 1.5578-0.98579 3.0881-1.5625 4.5625-2.9554 7.5556-13.712 18.193-7.3438 23.219 9.3187 7.3544 22.465-9.6336 30.531-18.344 4.949-5.3443 3.6478-15.602 9.7812-19.531 10.635-6.8119 27.037 5.2648 37.875-1.2188 7.6714-4.5894 19.474-16.625 13.438-23.219-0.85336-0.93212-1.7918-1.2582-2.8125-1.1875zm-130.78 98.281c-6.1342 7.5958-12.627 14.949-18.094 22.969-0.026 0.0534-0.0674 0.10305-0.0937 0.15625-0.37082 0.74749-0.78867 1.4605-1.25 2.1562-0.37015 0.55822-0.77028 1.1012-1.1875 1.625-0.77869 1.2603-1.5341 2.5426-2.25 3.8438-6.0882 11.065-9.4134 23.467-13.438 35.438-0.72141 2.146-1.6799 4.2916-2.625 6.4375 3.8939 2.2231 9.9447 2.2006 13.031-0.59375 6.2229-5.6337-3.6242-17.757 0.28125-25.188 4.0807-7.7638 15.417-8.8678 21.531-15.156 5.8241-5.99 14.737-12.568 13.844-20.875-0.50783-4.7214-5.0112-9.6061-9.75-10.812z" fill="url(#k)"/>
  <path d="m582.68 456.34s6.5965-13.079 8.6311-20.072c2.4614-8.46 3.6031-17.305 4.2152-26.094 0.73024-10.486-3.8138-20.875-3.8138-20.875l-9.8355 47.17z" fill="#2b0000"/>
  <path d="m387.67 408.24 0.96918 11.487s48.218 7.1308 72.102 11.922c10.486 2.1037 20.735 5.2952 31.225 7.3805 12.786 2.5418 25.803 3.7892 38.606 6.2451 11.995 2.3008 23.826 5.3863 35.767 7.9483 5.4796 1.1756 16.464 3.4064 16.464 3.4064l0.28387-12.206-185.93-40.025z" fill="url(#j)"/>
  <path transform="matrix(1.3146 0 0 1.3146 -133.11 -151.28)" d="m551.38 411.22-7.5 35.875 0.25 5.9062-140.75-30.281-7.2188 2.9062 0.75 8.75s36.675 5.4175 54.844 9.0625c7.977 1.6003 15.77 4.0386 23.75 5.625 9.7262 1.9336 19.636 2.8818 29.375 4.75 9.1244 1.7503 18.104 4.0823 27.188 6.0312 4.1684 0.89432 12.531 2.5938 12.531 2.5938v-0.4375c0.3086-0.6142 4.9716-9.9167 6.4688-15.062 1.8724-6.4356 2.7531-13.158 3.2188-19.844 0.5555-7.9764-2.9062-15.875-2.9062-15.875z" fill="#2b0000" filter="url(#o)" opacity=".5"/>
  <path d="m387.97 408.46 195.07 37.85s14.793-36.374 9.5341-53.816c-5.4164-17.965-22.237-31.984-38.821-40.762-19.127-10.124-42.414-10.758-64.054-10.59-14.166 0.11016-28.684 2.2737-41.818 7.5832-15.414 6.2314-30.117 15.566-41.476 27.707-8.416 8.9956-18.44 32.027-18.44 32.027z" fill="url(#h)"/>
  <path d="m387.97 408.46 195.07 37.85s14.793-36.374 9.5341-53.816c-5.4164-17.965-22.237-31.984-38.821-40.762-19.127-10.124-42.414-10.758-64.054-10.59-14.166 0.11016-28.684 2.2737-41.818 7.5832-15.414 6.2314-30.117 15.566-41.476 27.707-8.416 8.9956-18.44 32.027-18.44 32.027z" fill="url(#g)" opacity=".1873"/>
  <path transform="matrix(.70954 0 0 .70954 290.58 -3.7808)" d="m174.68 572.16c0 1.8553-1.6407 3.3592-3.6646 3.3592s-3.6646-1.504-3.6646-3.3592 1.6407-3.3592 3.6646-3.3592 3.6646 1.504 3.6646 3.3592z" fill="#e3dbdb"/>
  <path transform="matrix(.70954 0 0 .70954 306.11 -14.456)" d="m174.68 572.16c0 1.8553-1.6407 3.3592-3.6646 3.3592s-3.6646-1.504-3.6646-3.3592 1.6407-3.3592 3.6646-3.3592 3.6646 1.504 3.6646 3.3592z" fill="#e3dbdb"/>
  <path transform="matrix(.70954 0 0 .70954 306.11 -14.456)" d="m174.68 572.16c0 1.8553-1.6407 3.3592-3.6646 3.3592s-3.6646-1.504-3.6646-3.3592 1.6407-3.3592 3.6646-3.3592 3.6646 1.504 3.6646 3.3592z" fill="#e3dbdb"/>
  <path transform="matrix(.70954 0 0 .70954 309.99 -16.398)" d="m174.68 572.16c0 1.8553-1.6407 3.3592-3.6646 3.3592s-3.6646-1.504-3.6646-3.3592 1.6407-3.3592 3.6646-3.3592 3.6646 1.504 3.6646 3.3592z" fill="#e3dbdb"/>
  <path transform="matrix(.70954 0 0 .70954 347.84 -17.368)" d="m174.68 572.16c0 1.8553-1.6407 3.3592-3.6646 3.3592s-3.6646-1.504-3.6646-3.3592 1.6407-3.3592 3.6646-3.3592 3.6646 1.504 3.6646 3.3592z" fill="#e3dbdb"/>
  <path transform="matrix(.70954 0 0 .70954 415.78 12.718)" d="m174.68 572.16c0 1.8553-1.6407 3.3592-3.6646 3.3592s-3.6646-1.504-3.6646-3.3592 1.6407-3.3592 3.6646-3.3592 3.6646 1.504 3.6646 3.3592z" fill="#e3dbdb"/>
  <path transform="matrix(.70954 0 0 .70954 426.45 -19.309)" d="m174.68 572.16c0 1.8553-1.6407 3.3592-3.6646 3.3592s-3.6646-1.504-3.6646-3.3592 1.6407-3.3592 3.6646-3.3592 3.6646 1.504 3.6646 3.3592z" fill="#e3dbdb"/>
  <path transform="matrix(.70954 0 0 .70954 382.78 -47.454)" d="m174.68 572.16c0 1.8553-1.6407 3.3592-3.6646 3.3592s-3.6646-1.504-3.6646-3.3592 1.6407-3.3592 3.6646-3.3592 3.6646 1.504 3.6646 3.3592z" fill="#e3dbdb"/>
  <path transform="matrix(.70954 0 0 .70954 364.34 1.0718)" d="m174.68 572.16c0 1.8553-1.6407 3.3592-3.6646 3.3592s-3.6646-1.504-3.6646-3.3592 1.6407-3.3592 3.6646-3.3592 3.6646 1.504 3.6646 3.3592z" fill="#e3dbdb"/>
  <path transform="matrix(.70954 0 0 .70954 441.01 27.276)" d="m174.68 572.16c0 1.8553-1.6407 3.3592-3.6646 3.3592s-3.6646-1.504-3.6646-3.3592 1.6407-3.3592 3.6646-3.3592 3.6646 1.504 3.6646 3.3592z" fill="#e3dbdb"/>
  <path transform="matrix(.70954 0 0 .70954 395.4 -11.545)" d="m174.68 572.16c0 1.8553-1.6407 3.3592-3.6646 3.3592s-3.6646-1.504-3.6646-3.3592 1.6407-3.3592 3.6646-3.3592 3.6646 1.504 3.6646 3.3592z" fill="#e3dbdb"/>
  <path transform="matrix(.70954 0 0 .70954 334.26 -42.602)" d="m174.68 572.16c0 1.8553-1.6407 3.3592-3.6646 3.3592s-3.6646-1.504-3.6646-3.3592 1.6407-3.3592 3.6646-3.3592 3.6646 1.504 3.6646 3.3592z" fill="#e3dbdb"/>
  <path transform="matrix(.70954 0 0 .70954 327.46 7.8654)" d="m174.68 572.16c0 1.8553-1.6407 3.3592-3.6646 3.3592s-3.6646-1.504-3.6646-3.3592 1.6407-3.3592 3.6646-3.3592 3.6646 1.504 3.6646 3.3592z" fill="#e3dbdb"/>
  <path transform="matrix(.70954 0 0 .70954 366.28 -15.427)" d="m174.68 572.16c0 1.8553-1.6407 3.3592-3.6646 3.3592s-3.6646-1.504-3.6646-3.3592 1.6407-3.3592 3.6646-3.3592 3.6646 1.504 3.6646 3.3592z" fill="#e3dbdb"/>
  <path transform="matrix(.70954 0 0 .70954 390.55 15.63)" d="m174.68 572.16c0 1.8553-1.6407 3.3592-3.6646 3.3592s-3.6646-1.504-3.6646-3.3592 1.6407-3.3592 3.6646-3.3592 3.6646 1.504 3.6646 3.3592z" fill="#e3dbdb"/>
  <path transform="matrix(.70954 0 0 .70954 405.1 -37.749)" d="m174.68 572.16c0 1.8553-1.6407 3.3592-3.6646 3.3592s-3.6646-1.504-3.6646-3.3592 1.6407-3.3592 3.6646-3.3592 3.6646 1.504 3.6646 3.3592z" fill="#e3dbdb"/>
  <path transform="matrix(.70954 0 0 .70954 351.73 -32.896)" d="m174.68 572.16c0 1.8553-1.6407 3.3592-3.6646 3.3592s-3.6646-1.504-3.6646-3.3592 1.6407-3.3592 3.6646-3.3592 3.6646 1.504 3.6646 3.3592z" fill="#e3dbdb"/>
  <path transform="matrix(.70954 0 0 .70954 303.2 -28.044)" d="m174.68 572.16c0 1.8553-1.6407 3.3592-3.6646 3.3592s-3.6646-1.504-3.6646-3.3592 1.6407-3.3592 3.6646-3.3592 3.6646 1.504 3.6646 3.3592z" fill="#e3dbdb"/>
  <path transform="matrix(.70954 0 0 .70954 446.84 .10131)" d="m174.68 572.16c0 1.8553-1.6407 3.3592-3.6646 3.3592s-3.6646-1.504-3.6646-3.3592 1.6407-3.3592 3.6646-3.3592 3.6646 1.504 3.6646 3.3592z" fill="#e3dbdb"/>
  <path transform="matrix(.70954 0 0 .70954 446.84 .10131)" d="m174.68 572.16c0 1.8553-1.6407 3.3592-3.6646 3.3592s-3.6646-1.504-3.6646-3.3592 1.6407-3.3592 3.6646-3.3592 3.6646 1.504 3.6646 3.3592z" fill="#e3dbdb"/>
  <path transform="matrix(.70954 0 0 .70954 434.4 -35.199)" d="m174.68 572.16c0 1.8553-1.6407 3.3592-3.6646 3.3592s-3.6646-1.504-3.6646-3.3592 1.6407-3.3592 3.6646-3.3592 3.6646 1.504 3.6646 3.3592z" fill="#e3dbdb"/>
  <path d="m595.78 305.45s-0.49684 13.536 1.5116 19.866c1.9524 6.1539 5.5584 11.879 9.9332 16.627 6.2937 6.8304 14.764 11.326 22.674 16.195 8.3074 5.1145 16.929 9.802 25.913 13.604 9.3492 3.9567 18.89 8.038 28.936 9.5013 10.19 1.4843 20.724 0.83756 30.879-0.86376 7.589-1.2713 14.831-4.182 22.026-6.9101 10.544-3.998 26.353-11.049 30.879-13.82 2.098-1.2845 1.0797-6.9101 1.0797-6.9101z" fill="#3c0a0a"/>
  <path d="m671.31 251.01 98.136 102.17s-36.083 22.202-56.462 24.198c-21.43 2.0988-43.839-3.985-63.183-13.443-19.999-9.7784-42.043-22.675-51.084-43.018-5.2809-11.882-2.6204-26.602 1.3443-38.985 3.8166-11.921 11.381-22.994 20.743-31.303 8.6546-7.681 31.011-15.603 31.011-15.603 7.6001 2.9791 19.496 15.986 19.496 15.986z" fill="url(#f)"/>
  <path transform="matrix(-.59366 -.38861 .38861 -.59366 626.05 764.32)" d="m174.68 572.16c0 1.8553-1.6407 3.3592-3.6646 3.3592s-3.6646-1.504-3.6646-3.3592 1.6407-3.3592 3.6646-3.3592 3.6646 1.504 3.6646 3.3592z" fill="#e3dbdb"/>
  <path transform="matrix(-.59366 -.38861 .38861 -.59366 607.21 764.74)" d="m174.68 572.16c0 1.8553-1.6407 3.3592-3.6646 3.3592s-3.6646-1.504-3.6646-3.3592 1.6407-3.3592 3.6646-3.3592 3.6646 1.504 3.6646 3.3592z" fill="#e3dbdb"/>
  <path transform="matrix(-.59366 -.38861 .38861 -.59366 607.21 764.74)" d="m174.68 572.16c0 1.8553-1.6407 3.3592-3.6646 3.3592s-3.6646-1.504-3.6646-3.3592 1.6407-3.3592 3.6646-3.3592 3.6646 1.504 3.6646 3.3592z" fill="#e3dbdb"/>
  <path transform="matrix(-.59366 -.38861 .38861 -.59366 602.9 764.24)" d="m174.68 572.16c0 1.8553-1.6407 3.3592-3.6646 3.3592s-3.6646-1.504-3.6646-3.3592 1.6407-3.3592 3.6646-3.3592 3.6646 1.504 3.6646 3.3592z" fill="#e3dbdb"/>
  <path transform="matrix(-.59366 -.38861 .38861 -.59366 570.7 744.32)" d="m174.68 572.16c0 1.8553-1.6407 3.3592-3.6646 3.3592s-3.6646-1.504-3.6646-3.3592 1.6407-3.3592 3.6646-3.3592 3.6646 1.504 3.6646 3.3592z" fill="#e3dbdb"/>
  <path transform="matrix(-.59366 -.38861 .38861 -.59366 530.33 681.94)" d="m174.68 572.16c0 1.8553-1.6407 3.3592-3.6646 3.3592s-3.6646-1.504-3.6646-3.3592 1.6407-3.3592 3.6646-3.3592 3.6646 1.504 3.6646 3.3592z" fill="#e3dbdb"/>
  <path transform="matrix(-.59366 -.38861 .38861 -.59366 503.86 702.89)" d="m174.68 572.16c0 1.8553-1.6407 3.3592-3.6646 3.3592s-3.6646-1.504-3.6646-3.3592 1.6407-3.3592 3.6646-3.3592 3.6646 1.504 3.6646 3.3592z" fill="#e3dbdb"/>
  <path transform="matrix(-.59366 -.38861 .38861 -.59366 524.99 750.36)" d="m174.68 572.16c0 1.8553-1.6407 3.3592-3.6646 3.3592s-3.6646-1.504-3.6646-3.3592 1.6407-3.3592 3.6646-3.3592 3.6646 1.504 3.6646 3.3592z" fill="#e3dbdb"/>
  <path transform="matrix(-.59366 -.38861 .38861 -.59366 566.99 719.86)" d="m174.68 572.16c0 1.8553-1.6407 3.3592-3.6646 3.3592s-3.6646-1.504-3.6646-3.3592 1.6407-3.3592 3.6646-3.3592 3.6646 1.504 3.6646 3.3592z" fill="#e3dbdb"/>
  <path transform="matrix(-.59366 -.38861 .38861 -.59366 517.19 655.94)" d="m174.68 572.16c0 1.8553-1.6407 3.3592-3.6646 3.3592s-3.6646-1.504-3.6646-3.3592 1.6407-3.3592 3.6646-3.3592 3.6646 1.504 3.6646 3.3592z" fill="#e3dbdb"/>
  <path transform="matrix(-.59366 -.38861 .38861 -.59366 534.1 713.41)" d="m174.68 572.16c0 1.8553-1.6407 3.3592-3.6646 3.3592s-3.6646-1.504-3.6646-3.3592 1.6407-3.3592 3.6646-3.3592 3.6646 1.504 3.6646 3.3592z" fill="#e3dbdb"/>
  <path transform="matrix(-.59366 -.38861 .38861 -.59366 568.24 772.88)" d="m174.68 572.16c0 1.8553-1.6407 3.3592-3.6646 3.3592s-3.6646-1.504-3.6646-3.3592 1.6407-3.3592 3.6646-3.3592 3.6646 1.504 3.6646 3.3592z" fill="#e3dbdb"/>
  <path transform="matrix(-.59366 -.38861 .38861 -.59366 601.57 734.37)" d="m174.68 572.16c0 1.8553-1.6407 3.3592-3.6646 3.3592s-3.6646-1.504-3.6646-3.3592 1.6407-3.3592 3.6646-3.3592 3.6646 1.504 3.6646 3.3592z" fill="#e3dbdb"/>
  <path transform="matrix(-.59366 -.38861 .38861 -.59366 556.33 732.6)" d="m174.68 572.16c0 1.8553-1.6407 3.3592-3.6646 3.3592s-3.6646-1.504-3.6646-3.3592 1.6407-3.3592 3.6646-3.3592 3.6646 1.504 3.6646 3.3592z" fill="#e3dbdb"/>
  <path transform="matrix(-.59366 -.38861 .38861 -.59366 553.04 693.33)" d="m174.68 572.16c0 1.8553-1.6407 3.3592-3.6646 3.3592s-3.6646-1.504-3.6646-3.3592 1.6407-3.3592 3.6646-3.3592 3.6646 1.504 3.6646 3.3592z" fill="#e3dbdb"/>
  <path transform="matrix(-.59366 -.38861 .38861 -.59366 511.62 730.02)" d="m174.68 572.16c0 1.8553-1.6407 3.3592-3.6646 3.3592s-3.6646-1.504-3.6646-3.3592 1.6407-3.3592 3.6646-3.3592 3.6646 1.504 3.6646 3.3592z" fill="#e3dbdb"/>
  <path transform="matrix(-.59366 -.38861 .38861 -.59366 558.94 755.19)" d="m174.68 572.16c0 1.8553-1.6407 3.3592-3.6646 3.3592s-3.6646-1.504-3.6646-3.3592 1.6407-3.3592 3.6646-3.3592 3.6646 1.504 3.6646 3.3592z" fill="#e3dbdb"/>
  <path transform="matrix(-.59366 -.38861 .38861 -.59366 602.2 777.71)" d="m174.68 572.16c0 1.8553-1.6407 3.3592-3.6646 3.3592s-3.6646-1.504-3.6646-3.3592 1.6407-3.3592 3.6646-3.3592 3.6646 1.504 3.6646 3.3592z" fill="#e3dbdb"/>
  <path transform="matrix(-.59366 -.38861 .38861 -.59366 497.44 675.49)" d="m174.68 572.16c0 1.8553-1.6407 3.3592-3.6646 3.3592s-3.6646-1.504-3.6646-3.3592 1.6407-3.3592 3.6646-3.3592 3.6646 1.504 3.6646 3.3592z" fill="#e3dbdb"/>
  <path transform="matrix(-.59366 -.38861 .38861 -.59366 497.44 675.49)" d="m174.68 572.16c0 1.8553-1.6407 3.3592-3.6646 3.3592s-3.6646-1.504-3.6646-3.3592 1.6407-3.3592 3.6646-3.3592 3.6646 1.504 3.6646 3.3592z" fill="#e3dbdb"/>
  <path transform="matrix(-.59366 -.38861 .38861 -.59366 488.51 711.84)" d="m174.68 572.16c0 1.8553-1.6407 3.3592-3.6646 3.3592s-3.6646-1.504-3.6646-3.3592 1.6407-3.3592 3.6646-3.3592 3.6646 1.504 3.6646 3.3592z" fill="#e3dbdb"/>
  <path d="m387.83 436.52c0.84653 2.7292-5.5386 3.6217-5.6144 6.4782-0.0435 1.6408 1.4994 3.2766 3.0232 3.8869 6.3503 2.5434 13.505-2.2161 20.298-3.0232 6.4583-0.76729 13.038-2.9008 19.435-1.7275 5.193 0.95247 10.739 2.9688 14.252 6.9101 4.0594 4.5543 2.3852 12.395 6.0463 17.275 1.4863 1.9813 3.573 4.4505 6.0463 4.3188 3.4621-0.18434 5.0208-4.8027 7.7738-6.9101 3.9632-3.0337 7.9341-6.2465 12.524-8.2057 3.533-1.5079 7.3904-2.4417 11.229-2.5913 2.9092-0.11338 6.6266-0.80965 8.6376 1.2956 5.7981 6.07-1.2374 17.579 2.5913 25.049 0.79067 1.5427 2.1534 3.4604 3.8869 3.455 1.9368-6e-3 3.3795-2.1931 4.3188-3.8869 2.4104-4.3466-0.27619-10.624 2.5913-14.684 2.8639-4.0546 8.0028-7.0203 12.956-7.342 4.9619-0.32215 9.492 3.1667 13.82 5.6144 3.7593 2.126 7.9654 4.1831 10.365 7.7738 3.2206 4.8189-0.26041 13.29 4.3188 16.843 3.7533 2.9123 9.6486-1.1738 14.252 0 1.7479 0.4457 3.7739 1.0748 4.7507 2.5913 3.2048 4.9753-4.604 17.24 1.2956 17.707 7.5189 0.59542 1.445-15.475 5.1826-22.026 2.4722-4.3334 6.0787-8.7439 10.797-10.365 7.9387-2.7277 16.807 1.0002 25.049 2.5913 13.378 2.5824 26.935 5.5102 39.301 11.229 5.1823 2.3965 9.4593 6.3983 14.252 9.5013 4.9956 3.2344 9.3972 7.8534 15.116 9.5014 5.2565 1.5148 11.4 2.1941 16.411 0 4.6662-2.043 5.5175-9.6642 10.365-11.229 7.5499-2.4369 16.218 1.2174 23.321 4.7507 7.2147 3.5886 11.516 11.389 18.139 15.98 2.0114 1.3941 4.0408 3.6757 6.4782 3.455 5.3068-0.48041 7.2518-10.702 12.524-9.9332 5.2166 0.76055 4.0962 11.208 9.0695 12.956 3.3952 1.1939 6.771-2.8362 10.365-3.0232 4.822-0.25083 10.977-0.95714 14.252 2.5913 2.9436 3.1896 0.65332 8.6638 1.2956 12.956 0.32589 2.1779-0.62068 5.3932 1.2956 6.4782 1.8623 1.0544 4.5492-0.63009 6.0463-2.1594 3.1846-3.2531 1.0577-9.78 4.3188-12.956 2.4793-2.4149 6.4729-3.0945 9.9332-3.0232 3.0498 0.0629 6.3481 1.0074 8.6376 3.0232 2.6576 2.3399 3.3001 6.2712 4.7507 9.5013 0.63517 1.4144 0.65202 3.202 1.7275 4.3188 0.98348 1.0213 2.5696 2.252 3.8869 1.7275 1.7387-0.69224 1.2456-3.5494 2.1594-5.1826 1.5608-2.7894 2.5225-6.963 5.6144-7.7738 3.9876-1.0456 7.2087 4.2703 11.229 5.1826 10.109 2.294 21.463-3.399 31.095 0.43188 6.7218 2.6733 10.185 10.353 15.98 14.684 1.3448 1.005 2.6886 2.1899 4.3188 2.5913 7.2809 1.7925 15.096-2.7199 22.458-1.2956 2.6555 0.51376 5.7391 1.2763 7.342 3.455 5.598 7.6093 0.6646 19.192 3.8869 28.072 0.92652 2.5533 1.7041 6.1744 4.3188 6.9101 1.8592 0.52312 3.8975-1.1494 5.1826-2.5913 2.2422-2.5158 2.7915-6.1973 3.455-9.5013 1.1918-5.9347 2.114-12.216 0.86376-18.139-1.5291-7.2442-9.9332-19.866-9.9332-19.866l-11.071-8.5312-185.02-37.937-69.795-7.8189-55.523-11.336-62.2-12.7-139.88-28.561-34.93-7.1318-34.55-6.0463s-3.2097 4.9488-3.455 7.7738c-0.20541 2.3653-0.29213 5.6619 1.7275 6.9101 4.5161 2.7911 10.24-3.552 15.548-3.455 6.8426 0.12494 17.839-1.354 19.866 5.1826z" fill="url(#i)" opacity=".5"/>
  <path d="m762.27 494.4 1.2956 5.1826 150.73 31.959 15.98-4.3188-1.2956-4.7507z" fill="#300303"/>
  <path d="m914.7 525.66-152.69-31.149s6.6806-20.217 12.826-28.706c5.3242-7.3549 12.32-13.735 20.155-18.323 7.7777-4.5548 16.914-6.3427 25.652-8.5508 8.0154-2.0253 24.431-4.2754 24.431-4.2754l84.286 88.562z" fill="url(#e)"/>
  <path d="m671.31 251.01 98.136 102.17s-36.083 22.202-56.462 24.198c-21.43 2.0988-43.839-3.985-63.183-13.443-19.999-9.7784-42.043-22.675-51.084-43.018-5.2809-11.882-2.6204-26.602 1.3443-38.985 3.8166-11.921 11.381-22.994 20.743-31.303 8.6546-7.681 31.011-15.603 31.011-15.603 7.6001 2.9791 19.496 15.986 19.496 15.986z" fill="url(#d)" opacity=".36"/>
  <path transform="matrix(.70954 0 0 .70954 648.03 81.496)" d="m174.68 572.16c0 1.8553-1.6407 3.3592-3.6646 3.3592s-3.6646-1.504-3.6646-3.3592 1.6407-3.3592 3.6646-3.3592 3.6646 1.504 3.6646 3.3592z" fill="#e3dbdb"/>
  <path transform="matrix(.70954 0 0 .70954 663.56 70.821)" d="m174.68 572.16c0 1.8553-1.6407 3.3592-3.6646 3.3592s-3.6646-1.504-3.6646-3.3592 1.6407-3.3592 3.6646-3.3592 3.6646 1.504 3.6646 3.3592z" fill="#e3dbdb"/>
  <path transform="matrix(.70954 0 0 .70954 663.56 70.821)" d="m174.68 572.16c0 1.8553-1.6407 3.3592-3.6646 3.3592s-3.6646-1.504-3.6646-3.3592 1.6407-3.3592 3.6646-3.3592 3.6646 1.504 3.6646 3.3592z" fill="#e3dbdb"/>
  <path transform="matrix(.70954 0 0 .70954 667.44 68.88)" d="m174.68 572.16c0 1.8553-1.6407 3.3592-3.6646 3.3592s-3.6646-1.504-3.6646-3.3592 1.6407-3.3592 3.6646-3.3592 3.6646 1.504 3.6646 3.3592z" fill="#e3dbdb"/>
  <path transform="matrix(.70954 0 0 .70954 705.29 67.909)" d="m174.68 572.16c0 1.8553-1.6407 3.3592-3.6646 3.3592s-3.6646-1.504-3.6646-3.3592 1.6407-3.3592 3.6646-3.3592 3.6646 1.504 3.6646 3.3592z" fill="#e3dbdb"/>
  <path transform="matrix(.70954 0 0 .70954 773.23 97.995)" d="m174.68 572.16c0 1.8553-1.6407 3.3592-3.6646 3.3592s-3.6646-1.504-3.6646-3.3592 1.6407-3.3592 3.6646-3.3592 3.6646 1.504 3.6646 3.3592z" fill="#e3dbdb"/>
  <path transform="matrix(.70954 0 0 .70954 721.79 86.349)" d="m174.68 572.16c0 1.8553-1.6407 3.3592-3.6646 3.3592s-3.6646-1.504-3.6646-3.3592 1.6407-3.3592 3.6646-3.3592 3.6646 1.504 3.6646 3.3592z" fill="#e3dbdb"/>
  <path transform="matrix(.70954 0 0 .70954 798.46 112.55)" d="m174.68 572.16c0 1.8553-1.6407 3.3592-3.6646 3.3592s-3.6646-1.504-3.6646-3.3592 1.6407-3.3592 3.6646-3.3592 3.6646 1.504 3.6646 3.3592z" fill="#e3dbdb"/>
  <path transform="matrix(.70954 0 0 .70954 752.85 73.732)" d="m174.68 572.16c0 1.8553-1.6407 3.3592-3.6646 3.3592s-3.6646-1.504-3.6646-3.3592 1.6407-3.3592 3.6646-3.3592 3.6646 1.504 3.6646 3.3592z" fill="#e3dbdb"/>
  <path transform="matrix(.70954 0 0 .70954 691.7 42.676)" d="m174.68 572.16c0 1.8553-1.6407 3.3592-3.6646 3.3592s-3.6646-1.504-3.6646-3.3592 1.6407-3.3592 3.6646-3.3592 3.6646 1.504 3.6646 3.3592z" fill="#e3dbdb"/>
  <path transform="matrix(.70954 0 0 .70954 684.91 93.143)" d="m174.68 572.16c0 1.8553-1.6407 3.3592-3.6646 3.3592s-3.6646-1.504-3.6646-3.3592 1.6407-3.3592 3.6646-3.3592 3.6646 1.504 3.6646 3.3592z" fill="#e3dbdb"/>
  <path transform="matrix(.70954 0 0 .70954 723.73 69.85)" d="m174.68 572.16c0 1.8553-1.6407 3.3592-3.6646 3.3592s-3.6646-1.504-3.6646-3.3592 1.6407-3.3592 3.6646-3.3592 3.6646 1.504 3.6646 3.3592z" fill="#e3dbdb"/>
  <path transform="matrix(.70954 0 0 .70954 747.99 100.91)" d="m174.68 572.16c0 1.8553-1.6407 3.3592-3.6646 3.3592s-3.6646-1.504-3.6646-3.3592 1.6407-3.3592 3.6646-3.3592 3.6646 1.504 3.6646 3.3592z" fill="#e3dbdb"/>
  <path transform="matrix(.70954 0 0 .70954 709.17 52.381)" d="m174.68 572.16c0 1.8553-1.6407 3.3592-3.6646 3.3592s-3.6646-1.504-3.6646-3.3592 1.6407-3.3592 3.6646-3.3592 3.6646 1.504 3.6646 3.3592z" fill="#e3dbdb"/>
  <path transform="matrix(.70954 0 0 .70954 660.65 57.233)" d="m174.68 572.16c0 1.8553-1.6407 3.3592-3.6646 3.3592s-3.6646-1.504-3.6646-3.3592 1.6407-3.3592 3.6646-3.3592 3.6646 1.504 3.6646 3.3592z" fill="#e3dbdb"/>
  <path d="m914.7 525.66-152.69-31.149s6.6806-20.217 12.826-28.706c5.3242-7.3549 12.32-13.735 20.155-18.323 7.7777-4.5548 16.914-6.3427 25.652-8.5508 8.0154-2.0253 24.431-4.2754 24.431-4.2754l84.286 88.562z" fill="url(#c)"/>
  <path d="m637.64 206.62c-2.8648-8.2196-17.364 2.2282-25.652 4.8862-11.103 3.5604-20.89 10.44-31.76 14.658-8.7635 3.4014-18.118 5.1309-26.874 8.5508-6.2782 2.452-13.043 4.3615-18.323 8.5508-5.6791 4.506-17.06 10.822-13.437 17.102 5.756 9.9752 22.935-7.2684 34.203-4.8862 3.7582 0.79457 5.9546 5.6823 9.7723 6.1077 8.5749 0.95542 17.2-3.843 24.431-8.5508 7.4836-4.8727 13.966-11.75 18.323-19.545 2.2652-4.0524 0.75527-9.819 3.6646-13.437 6.0491-7.5223 28.829-4.3219 25.652-13.437z" fill="#fff" opacity=".3"/>
 </g>
</svg>
